<svg xmlns="http://www.w3.org/2000/svg" width="197.299" height="197.299" viewBox="0 0 197.299 197.299">
  <g id="Group_95" data-name="Group 95" transform="translate(-190.288 -4583.328)">
    <g id="Path_51321" data-name="Path 51321" transform="translate(190.288 4583.328)" fill="rgba(255,255,255,0.6)" opacity="0.15">
      <path d="M 98.6494140625 196.7988433837891 C 91.98976135253906 196.7988433837891 85.33446502685547 196.1279449462891 78.86836242675781 194.8047943115234 C 72.56684112548828 193.5153198242188 66.36843872070312 191.5912170410156 60.44538879394531 189.0859680175781 C 54.62973785400391 186.6261596679688 49.02051544189453 183.5815582275391 43.77349090576172 180.0367431640625 C 38.57621383666992 176.5255432128906 33.68888854980469 172.4931182861328 29.247314453125 168.0515441894531 C 24.80571365356445 163.6099395751953 20.77331352233887 158.7226104736328 17.26208877563477 153.5253448486328 C 13.71728897094727 148.2783203125 10.67268943786621 142.6690826416016 8.212863922119141 136.8534393310547 C 5.707639217376709 130.9303588867188 3.783539056777954 124.7319869995117 2.494064092636108 118.4304656982422 C 1.170914053916931 111.9643630981445 0.500014066696167 105.3090362548828 0.500014066696167 98.6494140625 C 0.500014066696167 90.82154083251953 1.431739091873169 83.03391265869141 3.269289016723633 75.50281524658203 C 5.071114063262939 68.11826324462891 7.786364078521729 60.80551528930664 11.33961391448975 53.7676887512207 C 15.26461410522461 45.98756408691406 20.28238868713379 38.74461364746094 26.25361442565918 32.23994064331055 C 32.21283721923828 25.74836349487305 39.0395622253418 20.08113861083984 46.54423904418945 15.39571380615234 C 54.18148803710938 10.62748908996582 62.4295654296875 6.935139179229736 71.05936431884766 4.42121410369873 C 79.99118804931641 1.819289088249207 89.27381134033203 0.500014066696167 98.6494140625 0.500014066696167 C 105.3090362548828 0.500014066696167 111.9643630981445 1.170914053916931 118.4304656982422 2.494064092636108 C 124.7319869995117 3.783539056777954 130.9303588867188 5.707639217376709 136.8534393310547 8.212863922119141 C 142.6690826416016 10.67268943786621 148.2783203125 13.71728897094727 153.5253448486328 17.26208877563477 C 158.7226104736328 20.77331352233887 163.6099395751953 24.80571365356445 168.0515441894531 29.247314453125 C 172.4931182861328 33.68888854980469 176.5255432128906 38.57621383666992 180.0367431640625 43.77349090576172 C 183.5815582275391 49.02051544189453 186.6261596679688 54.62973785400391 189.0859680175781 60.44538879394531 C 191.5912170410156 66.36843872070312 193.5153198242188 72.56684112548828 194.8047943115234 78.86836242675781 C 196.1279449462891 85.33446502685547 196.7988433837891 91.98976135253906 196.7988433837891 98.6494140625 C 196.7988433837891 105.3090362548828 196.1279449462891 111.9643630981445 194.8047943115234 118.4304656982422 C 193.5153198242188 124.7319869995117 191.5912170410156 130.9303588867188 189.0859680175781 136.8534393310547 C 186.6261596679688 142.6690826416016 183.5815582275391 148.2783203125 180.0367431640625 153.5253448486328 C 176.5255432128906 158.7226104736328 172.4931182861328 163.6099395751953 168.0515441894531 168.0515441894531 C 163.6099395751953 172.4931182861328 158.7226104736328 176.5255432128906 153.5253448486328 180.0367431640625 C 148.2783203125 183.5815582275391 142.6690826416016 186.6261596679688 136.8534393310547 189.0859680175781 C 130.9303588867188 191.5912170410156 124.7319869995117 193.5153198242188 118.4304656982422 194.8047943115234 C 111.9643630981445 196.1279449462891 105.3090362548828 196.7988433837891 98.6494140625 196.7988433837891 Z" stroke="none"/>
      <path d="M 98.6494140625 0.9999847412109375 C 89.3211669921875 0.9999847412109375 80.08558654785156 2.31256103515625 71.19921112060547 4.901214599609375 C 62.61343383789062 7.40234375 54.40739440917969 11.07588195800781 46.80903625488281 15.81980895996094 C 39.34259033203125 20.48138427734375 32.55068969726562 26.11965942382812 26.62193298339844 32.57803344726562 C 20.68180847167969 39.04885864257812 15.69029235839844 46.25381469726562 11.78591918945312 53.9930419921875 C 8.24981689453125 60.99691772460938 5.547836303710938 68.27374267578125 3.755035400390625 75.621337890625 C 1.926910400390625 83.11368560791016 0.9999847412109375 90.86146545410156 0.9999847412109375 98.6494140625 C 0.9999847412109375 105.2754669189453 1.667465209960938 111.8970413208008 2.98388671875 118.3302383422852 C 4.266769409179688 124.5994110107422 6.18096923828125 130.7659912109375 8.673370361328125 136.6586608886719 C 11.12059020996094 142.4445648193359 14.14964294433594 148.0251617431641 17.6763916015625 153.2454223632812 C 21.16978454589844 158.4163360595703 25.1817626953125 163.2788848876953 29.60084533691406 167.6979675292969 C 34.01994323730469 172.1170349121094 38.88246154785156 176.1290130615234 44.05339050292969 179.6224060058594 C 49.27363586425781 183.149169921875 54.85423278808594 186.1782073974609 60.64016723632812 188.6254425048828 C 66.53282165527344 191.1178436279297 72.69938659667969 193.0320434570312 78.96858978271484 194.3149108886719 C 85.40178680419922 195.6313323974609 92.02336120605469 196.2988128662109 98.6494140625 196.2988128662109 C 105.2754669189453 196.2988128662109 111.8970413208008 195.6313323974609 118.3302383422852 194.3149108886719 C 124.5994110107422 193.0320434570312 130.7659912109375 191.1178436279297 136.6586608886719 188.6254425048828 C 142.4445648193359 186.1782073974609 148.0251617431641 183.149169921875 153.2454223632812 179.6224060058594 C 158.4163360595703 176.1290130615234 163.2788848876953 172.1170349121094 167.6979675292969 167.6979675292969 C 172.1170349121094 163.2788848876953 176.1290130615234 158.4163360595703 179.6224060058594 153.2454223632812 C 183.149169921875 148.0251617431641 186.1782073974609 142.4445648193359 188.6254425048828 136.6586608886719 C 191.1178436279297 130.7659912109375 193.0320434570312 124.5994110107422 194.3149108886719 118.3302383422852 C 195.6313323974609 111.8970413208008 196.2988128662109 105.2754669189453 196.2988128662109 98.6494140625 C 196.2988128662109 92.02336120605469 195.6313323974609 85.40178680419922 194.3149108886719 78.96858978271484 C 193.0320434570312 72.69938659667969 191.1178436279297 66.53282165527344 188.6254425048828 60.64016723632812 C 186.1782073974609 54.85423278808594 183.149169921875 49.27363586425781 179.6224060058594 44.05339050292969 C 176.1290130615234 38.88246154785156 172.1170349121094 34.01994323730469 167.6979675292969 29.60084533691406 C 163.2788848876953 25.1817626953125 158.4163360595703 21.16978454589844 153.2454223632812 17.6763916015625 C 148.0251617431641 14.14964294433594 142.4445648193359 11.12059020996094 136.6586608886719 8.673370361328125 C 130.7659912109375 6.18096923828125 124.5994110107422 4.266769409179688 118.3302383422852 2.98388671875 C 111.8970413208008 1.667465209960938 105.2754669189453 0.9999847412109375 98.6494140625 0.9999847412109375 M 98.6494140625 -1.52587890625e-05 C 153.1319580078125 -1.52587890625e-05 197.2988128662109 44.16683959960938 197.2988128662109 98.6494140625 C 197.2988128662109 153.1319580078125 153.1319580078125 197.2988128662109 98.6494140625 197.2988128662109 C 44.16683959960938 197.2988128662109 -1.52587890625e-05 153.1319580078125 -1.52587890625e-05 98.6494140625 C -1.52587890625e-05 82.68601226806641 3.79168701171875 67.60821533203125 10.89323425292969 53.54234313964844 C 26.76736450195312 22.07673645019531 60.13023376464844 -1.52587890625e-05 98.6494140625 -1.52587890625e-05 Z" stroke="none" fill="#707070"/>
    </g>
    <g id="Group_34" data-name="Group 34" transform="translate(223.827 4616.866)">
      <g id="XMLID_1_" transform="translate(0 0)">
        <path id="Path_1" data-name="Path 1" d="M298.407,210.508a65.166,65.166,0,0,1-61.295,64.353l6-6.057a1.535,1.535,0,0,0,0-2.18l-6.208-6.3a50.7,50.7,0,0,0,47.061-49.847L291.2,203.3Z" transform="translate(-168.186 -144.761)" fill="#fff"/>
        <path id="Path_2" data-name="Path 2" d="M81.9,291.169l-7.147,7.238A65.166,65.166,0,0,1,10.4,237.112l6.057,6a1.535,1.535,0,0,0,2.18,0l6.3-6.208a50.7,50.7,0,0,0,49.847,47.061Z" transform="translate(-10.279 -168.186)" fill="#fff"/>
        <path id="Path_3" data-name="Path 3" d="M71.537,24.876A50.7,50.7,0,0,0,24.476,74.723L17.238,81.9,10,74.753A65.166,65.166,0,0,1,71.295,10.4l-6,6.057a1.535,1.535,0,0,0,0,2.18Z" transform="translate(-10 -10.279)" fill="#fff"/>
        <path id="Path_4" data-name="Path 4" d="M274.861,71.295l-6.057-6a1.535,1.535,0,0,0-2.18,0l-6.3,6.208a50.7,50.7,0,0,0-49.847-47.061L203.3,17.208,210.508,10A65.166,65.166,0,0,1,274.861,71.295Z" transform="translate(-144.761 -10)" fill="#fff"/>
        <path id="Path_5" data-name="Path 5" d="M194.79,154.66c-.091.212-.515.485-1.423.666a3.146,3.146,0,0,1-.454.061,3.229,3.229,0,0,0-2.847,3.059,4.449,4.449,0,0,0,1,3.362c.121.151.182.273.273.363-.485.121-2.12.666-2.332,2.15a2.281,2.281,0,0,0,.909,2.12c-.03,0-.061.03-.121.03a1.421,1.421,0,0,0-.666.273c-.939.636-1.151,1.968-.787,5.269a2.98,2.98,0,0,1-.333,2,1.413,1.413,0,0,1-.909.424h-.061a12.15,12.15,0,0,1-3.816-.7h-.03a4.635,4.635,0,0,0-4.119.515c-1.272.969-1.817,2.635-1.666,5v.606H149.031c.848-5.663,2.483-19.745-1.181-23.773-.666-.909-8.358-11.538-7.147-18.655,0-.091.03-.182.03-.273,0-10.145,5.179-21.956,19.806-21.956h8.51c8.267,0,13.476,5.6,16.414,10.266,4.421,7.086,5.542,15.112,4.815,16.626a5.19,5.19,0,0,0-.545,1.787,5.967,5.967,0,0,0,.363,2.726,7.238,7.238,0,0,0,.485.969l4.149,6.269A1.362,1.362,0,0,1,194.79,154.66Z" transform="translate(-101.031 -83.341)" fill="#fff"/>
      </g>
    </g>
  </g>
</svg>
