<svg id="Group_34" data-name="Group 34" xmlns="http://www.w3.org/2000/svg" width="130.221" height="130.221" viewBox="0 0 130.221 130.221">
  <g id="XMLID_1_" transform="translate(0 0)">
    <path id="Path_1" data-name="Path 1" d="M298.407,210.508a65.166,65.166,0,0,1-61.295,64.353l6-6.057a1.535,1.535,0,0,0,0-2.18l-6.208-6.3a50.7,50.7,0,0,0,47.061-49.847L291.2,203.3Z" transform="translate(-168.186 -144.761)" fill="#fff"/>
    <path id="Path_2" data-name="Path 2" d="M81.9,291.169l-7.147,7.238A65.166,65.166,0,0,1,10.4,237.112l6.057,6a1.535,1.535,0,0,0,2.18,0l6.3-6.208a50.7,50.7,0,0,0,49.847,47.061Z" transform="translate(-10.279 -168.186)" fill="#fff"/>
    <path id="Path_3" data-name="Path 3" d="M71.537,24.876A50.7,50.7,0,0,0,24.476,74.723L17.238,81.9,10,74.753A65.166,65.166,0,0,1,71.295,10.4l-6,6.057a1.535,1.535,0,0,0,0,2.18Z" transform="translate(-10 -10.279)" fill="#fff"/>
    <path id="Path_4" data-name="Path 4" d="M274.861,71.295l-6.057-6a1.535,1.535,0,0,0-2.18,0l-6.3,6.208a50.7,50.7,0,0,0-49.847-47.061L203.3,17.208,210.508,10A65.166,65.166,0,0,1,274.861,71.295Z" transform="translate(-144.761 -10)" fill="#fff"/>
    <path id="Path_5" data-name="Path 5" d="M194.79,154.66c-.091.212-.515.485-1.423.666a3.146,3.146,0,0,1-.454.061,3.229,3.229,0,0,0-2.847,3.059,4.449,4.449,0,0,0,1,3.362c.121.151.182.273.273.363-.485.121-2.12.666-2.332,2.15a2.281,2.281,0,0,0,.909,2.12c-.03,0-.061.03-.121.03a1.421,1.421,0,0,0-.666.273c-.939.636-1.151,1.968-.787,5.269a2.98,2.98,0,0,1-.333,2,1.413,1.413,0,0,1-.909.424h-.061a12.15,12.15,0,0,1-3.816-.7h-.03a4.635,4.635,0,0,0-4.119.515c-1.272.969-1.817,2.635-1.666,5v.606H149.031c.848-5.663,2.483-19.745-1.181-23.773-.666-.909-8.358-11.538-7.147-18.655,0-.091.03-.182.03-.273,0-10.145,5.179-21.956,19.806-21.956h8.51c8.267,0,13.476,5.6,16.414,10.266,4.421,7.086,5.542,15.112,4.815,16.626a5.19,5.19,0,0,0-.545,1.787,5.967,5.967,0,0,0,.363,2.726,7.238,7.238,0,0,0,.485.969l4.149,6.269A1.362,1.362,0,0,1,194.79,154.66Z" transform="translate(-101.031 -83.341)" fill="#fff"/>
  </g>
</svg>
